/* XPM */
static char *f1b6b5e733da4b30d2dd6e7bd43081d7Jd4Ex7lf1ja8dwtq[] = {
/* columns rows colors chars-per-pixel */
"48 48 161 2 ",
"   c #010100",
".  c #0A0B07",
"X  c #0D0F0C",
"o  c #0E100D",
"O  c #17160E",
"+  c #17190E",
"@  c #0C0E10",
"#  c #1D1F12",
"$  c #2E0B18",
"%  c #2C171C",
"&  c #12201C",
"*  c #312D1E",
"=  c #30351C",
"-  c #33381E",
";  c #331523",
":  c #3A1B2A",
">  c #182020",
",  c #262B26",
"<  c #392424",
"1  c #343828",
"2  c #272D31",
"3  c #302C31",
"4  c #2E3438",
"5  c #2C3D3D",
"6  c #33393C",
"7  c #3A3B3A",
"8  c #441F2D",
"9  c #5B253A",
"0  c #483137",
"q  c #533A3F",
"w  c #61243B",
"e  c #3A4022",
"r  c #424927",
"t  c #49412D",
"y  c #4C532C",
"u  c #645D39",
"i  c #5B6436",
"p  c #6A743E",
"a  c #4A3843",
"s  c #563C48",
"d  c #652E45",
"f  c #394343",
"g  c #3B4748",
"h  c #3B4C50",
"j  c #414B4C",
"k  c #404A50",
"l  c #544953",
"z  c #495656",
"x  c #535252",
"c  c #6D4B5C",
"v  c #735454",
"b  c #6F7B42",
"n  c #4D5B62",
"m  c #565861",
"M  c #496161",
"N  c #57656D",
"B  c #4C6D71",
"V  c #5C6F70",
"C  c #5F7078",
"Z  c #65646B",
"A  c #6D6F76",
"S  c #637274",
"D  c #62757D",
"F  c #627C7F",
"G  c #73777E",
"H  c #853D5A",
"J  c #804965",
"K  c #934464",
"L  c #97767F",
"P  c #788546",
"I  c #7D8A49",
"U  c #828F4C",
"Y  c #86944E",
"T  c #8D9B52",
"R  c #9DAE5C",
"E  c #A0B15D",
"W  c #9CBD61",
"Q  c #A5B660",
"!  c #AABC63",
"~  c #9CC063",
"^  c #9BC668",
"/  c #A3C464",
"(  c #AFC166",
")  c #A6C967",
"_  c #ADC967",
"`  c #AECC68",
"'  c #B0C566",
"]  c #B1CB66",
"[  c #B3C568",
"{  c #B4CD6A",
"}  c #BACE6C",
"|  c #B4D26B",
" . c #BDD26E",
".. c #BED96F",
"X. c #BFD370",
"o. c #B5DD72",
"O. c #BCDF72",
"+. c #C1D36F",
"@. c #C0D96F",
"#. c #C1D470",
"$. c #C8D672",
"%. c #C3DA71",
"&. c #C5D972",
"*. c #C6D873",
"=. c #C5DD72",
"-. c #C7D974",
";. c #C9DE73",
":. c #C9D974",
">. c #CADD74",
",. c #CADE75",
"<. c #C4E374",
"1. c #CAE074",
"2. c #CCE276",
"3. c #CDE276",
"4. c #C5EE7A",
"5. c #CAEC79",
"6. c #D0E377",
"7. c #D2F37D",
"8. c #637B82",
"9. c #6B7D84",
"0. c #797981",
"q. c #AD5E80",
"w. c #BD5680",
"e. c #95748B",
"r. c #C95A88",
"t. c #D65E8E",
"y. c #DE7EA7",
"u. c #F776AF",
"i. c #6E8186",
"p. c #6F828A",
"a. c #738186",
"s. c #72858B",
"d. c #7B8589",
"f. c #7D898C",
"g. c #758A91",
"h. c #7B9294",
"j. c #7C9899",
"k. c #829295",
"l. c #829598",
"z. c #859B9D",
"x. c #8C9A9D",
"c. c #949A9E",
"v. c #989A9F",
"b. c #AB939D",
"n. c #8D9EA2",
"m. c #8DA1A3",
"M. c #96A6A9",
"N. c #A8A1A7",
"B. c #B2A5AD",
"V. c #A4AFB2",
"C. c #A8B0B4",
"Z. c #BBB3BA",
"A. c #D0ACB7",
"S. c #C1B4BC",
"D. c #E8AABA",
"F. c #B5BEC3",
"G. c #DCBCC7",
"H. c #EBB5C3",
"J. c #F9BACC",
"K. c #F2C1CF",
"L. c #FFC3D7",
/* pixels */
"o.<...] ] }  .#.+.} } }  .#.#.+.} }  .+.+.+.+.} } } }  . . . .+.&.:.:.&.#.} { [ [ ] ] ' ] ..4.4.",
") | | { {  .#.&.&.#. . .#.#.#.+. . . .+.#.+.+. .} }  . . . . .#.&.&.$.&.#.} } } } } } }  .%.5.4.",
"W ` { {  .#.&.&.&.#.#.X.#.#.#.#. .X.#.#.#.#.#. . . . . . . . .#.#.&.&.#. . .}  . .+.+.+.+.%.<.O.",
"W _ {  .&.:.-.-.&.#.#.X.#.#.#.#.#.#.#.#.#.#.#.#. . .X.#.X.X.X.X.#.#.#. . . .X.#.#.&.:.:.&.%.@.| ",
"/ { }  .&.:.-.&.&.#.X. .X.#.#.#.#.#.#.#.#.#.#.#.#.#.#.#.#.#.#.#.#.+. . . . .#.&.&.:.,.,.:.#.+.] ",
"_  . . .&.&.&.&.#. . . . .#.#.#.#.#.#.#.#.#.#.#.#.#.#.#.#.#.#.#.#.#.+. . . .#.#.&.:.:.:.&.#.+.{ ",
" .&.&.#.&.&.&.#.X. .}  . .#.#.#.#.#.#.#.#.#.#.#.#.#.#.#.#.#.#.#.#.#.#. . . . .#.#.&.&.&.#.#.&.| ",
" .;.&.#.&.&.#.#. . . . . .#.#.#.#.#.X.X.#.#.#.#.#.#.#.#.#.#.#.#.#.#.#.X. . . . .#.#.#.#.X.&.=. .",
"&.1.&.#.#.#.#.#. . . . .X.#.#.#.X.#.#.#.#.#.#.#.#.#.#.#.#.#.#.#.#.#.#.X. . . .X.#.#.#.#.X.&.;...",
"&.1.&.#.#.#.#.#.#.X. .+.#.#.#.#.#.#.#.#.#.#.#.#.#.#.#.#.#.#.#.#.#.#.#.X. . .X.X.#.#.#.#.#.&.1.@.",
"=.2.&.#.#.#.#.#.#.#.#.#.#.#.#.#.#.#.#.#.#.#.#.#.#.#.#.#.#.#.#.#.#.#.#.X.X.X.X.X.#.#.#.#.#.;.1. .",
";.2.&. . . .#.#.#.#.#.#.#.#.X.#.#.#.#.#.#.#.#.#.#.#.#.#.#.#.#.#.#.#.#.#.#.#.X.X.X.#.#.&.&.;.2.#.",
"1.2.&. . . .#.#.#.#.#.#.#.#.#.#.#.#.#.#.#.#.#.#.#.#.#.#.#.#.#.#.#.#.#.#.#.#.X.X.X.X.#.&.&.,.2.&.",
";.1.%. . .X.#.#.#.#.#.#.#.#.#.#.#.#.#.#.X.#.#.#.#.X.#.#.#.#.#.#.#.#.#.#.#.#.X. . .X.#.#.&.2.6.&.",
"=.;.&.X.X.X.+.#.#.#.#.#.#.#.#.#.#.#.#.#.#.#.#.#.#.#.#.#.#.#.#.#.#.#.#.#.#.#.X. . . .X.#.&.2.2.&.",
"..=.&.#.#.X. . . .X.#.#.#.#.#.#.#. .X.#.#.#.#.#.#.#.#.#.#.#.#.#.#. .#.#.#.#.X. . . .#.#.&.;.2.@.",
" .=.&.&.&.#. . . . .X.#.#.#.#.#. .#. .i r y y y y y y y y y y e P #.#.#.#.#. . . . .#.&.&.;.=. .",
" .%.&.&.&.#. . . . .#.#.#.#.#.#.#.( i 2 4 6 f 5 5 f 6 4 f 5 5 g 6 I #.#.#.#. . . . .#.&.#.&.%.` ",
" .=.#.&.&.#. . . . .#.#.#.#.#.#.#.I X D s.h.V.Z.S.V.g.p.M.Z.S.F.S . #.#.#.+. . . .X.&.&.#.@. .) ",
"..=.#.#.#.X. . . .X.#.#.#.#.#.#.#.Y o N D F B.L.J.N.F D x.H.L.G.M + #.#.#.#. . . .#.&.&. . .| / ",
"&.=.#.X.#.#.#.#.#.#.#.#.#.#.#.#.#.Y o N D 8.B.J.c.h.k.k.k.k.H.G.M + #.#.#.#.X.X.X.#.&.#. . .| / ",
"=.=.X. .X.#.#.#.#.#.#.#.#.#.#.#.#.I @ C D a.c.v.z.l.k.k.k.z.c.C.S o #.#.#.#.#.X.X.#.#.#. . .| / ",
";.;.#.X.#.#.#.#.#.#.#.#.#.#.#.#.#.[ b , n 9.s.s.l G z.z.f.l a.V 1 T #.#.#.#.#.#.#.#.#.#. . . ./ ",
"2.,.%.#.#.#.#.#.#.#.#.#.#.#. .#.#.#.{ + k 8.9.d.; Z m.z.9.; 0.j r #.#.#.#.#.#.#.#.#.#.#. ... ._ ",
"1.2.&.&.&.&.#.#.#.#.#.#.#.#.#.T R #.[ + h 9.p.d.: Z z.M.b.: G z e  .#.#.#.#.#.#.#.#.#.#.+.%...` ",
";.;.&.:.&.#.#.X.#.#.#.#.#.#.E < t [ T < m D i.f.a A j.B.D.s a.z e  .#.#.#.#.#.#.#.#.#.#.#.&.@.{ ",
"%.=.&.&.&.#.X.X.X.#.#.#.#.#.# w.K . % t.e.B 9.l.l.k.k.k.k.l.M.j e  .#.#.#.#.X.X.#.#.#.#.#.=.@.{ ",
"..%.#.&.#.#. . . .#.#.#.#.#.! * H u.r.; h 8.9.h.n.n.n.z.h.m.M.g e  .#.#.#. . . . .#.#.#.#.&.@.` ",
" ... .#.#. . . . .#.#.#.#.#.#.' t d 8   q.J x K.7 > & c y.3 A.L e  .#.#.+. . . . .X.#.#.#.%. ._ ",
" .%. .#.#. . . . .#.#.#.#.#. .#.Q b p X 9 $ O v p I U u w   q 0 e  .#.#. . . . . . .#.#.#.@. ./ ",
"%.%.#.#.#. . . . .#.#.#.#.#.#. .#.#. .y = = = r  .#.#.! - = = = i  .#.#. . . . . . .#.#.#.%. ./ ",
"=.=.#.#.#.#. . .X.#.#.#.#.#.#.#.#.#.#.#.#.#.#.#.#.#.#.#.#.#.#.#.#.#.#.+. . . . . . .X. .#.=..._ ",
"1.;.&.&.#.#.#.#.#.#.#.#.#.#.#.#.#.#.#.#.#.#.#.#.#.#.#.#.#.#.#.#.#.#.#.X. .#.#.#.#.X. . .%.;.=.{ ",
"2.;.&.&.&.#.#.#.#.#.#.#.#.#.#.#.#.#.#.#.#.#.#.#.#.X.#.#.#.#.#.#.#.#.#.#.#.#.#.#.#.X. . .%.2.2. .",
"1.;.&.&.&.#.#.#.#.#.#.#.#.#.#.#.#.#.#.#.#.#.#.#.#.#.#.#.#.#.#.#.#.#.#.#.#.#.#.#.#.X.X.X.&.2.2. .",
";.=.#.&.&.#.#.#.#.#.#.#.#.#.#.#.#.#.#.#.#.#.#.#.#.#.#.#.#.#.#.#.#.#.#.#.#.#.#.X.#.#.#.#.&.2.;.{ ",
"=.&.#.&.&.#.#.#.#.#.#.#.#.#.#.#.#.#.#.#.#.#.#.#.#.#.#.#.#.#.#.#.#.#.#.#.#.#. . . .#.#.#.&.;.&.` ",
"%.&.#.&.#.#. . . .#.#.#.#.#.#.#.#.#.#.#.#.#.#.#.X.#.#.#.#.#.#.#.#.#.#.#.#.#. . . .#.&.&.&.&. ./ ",
"%.&.#.&.#. . . . .#.#.#.#.#.#.#.#.#.#.#.#.#.#.#.#.#.#.#.#.#.#.#.#.#.#.#.#.#. . . .#.&.&.&.@.| ~ ",
"%.%.&.&.#. . . . .+.#.#.#.#.#.#.#.#.#.#.X.#.#.#.#.#.#.#.#.#.#.#.#.#.#.#.#.#. . . .#.&.&.&...{ ~ ",
"@.%.#.&.#. .} }  . .#.#.#.#.#.#.#.#.#.#.#.#.#.#.#.#.#.#.#.#.#.#.#.#.#.#.#.#.X. . .#.&.#.%...| / ",
" .#.#.&.#.#. . . . . .X.#.#.#.#.#.#.#.#.#.#.#.#.#.#.#.#.#.#.#.#.#.#.#.#.#.X.X. . .#.#.#.%...| / ",
" .+.#.&.&.&.#. . . . .X.#.#.#. . .#.#.#.#.#. . .#.#.#.#.#.#.#.#.#.#.#.X.X. . . . .#.&.#.#. .{ / ",
" . .#.&.:.&.&.#. . . .X.#.#.X. . .X.#.#.#.#. . .+.#.#.#.#.X.X.#.#. . . . . . . .X.#.&.#.#. .] / ",
"&.#. .#.&.&.&.#. . . .#.#.#. . . . .#.#.#.#. . .+.#.#.#.X. . .#.#.+. . . . . . . .#.&.#.#. ._ / ",
"5.=.+.+.+.+.+.+.+. .#.#.#.#.+. . . . .#.#.#.+.+.+.+.+. . . . .#.#.#.#. . . . . . .#.&.#.%. .` W ",
"7.1.+.}  . . .+.+.&.&.&.#.#.+.+.+. . . .+.+.+.+.+.+.+. . .}  .#.#.&.#.#. . . . . .+.&.#.=.<.| ~ ",
"7.<. .} } { } } +.&.&.&.#.#.#.+.+. .} }  .+.#.#.+.+. . .} }  .+.&.&.&.&.&.#.+.+.+.+.+.&.5.5.o.^ "
};
