/* XPM */
static char *_a0bbadfd2a741919fac6ca7c42f17d9SGdLw5GrYKki0SXW[] = {
/* columns rows colors chars-per-pixel */
"48 48 187 2 ",
"   c #5F4642",
".  c #664643",
"X  c #684746",
"o  c #634D44",
"O  c #6B4B46",
"+  c #684348",
"@  c #664D48",
"#  c #6F4A4A",
"$  c #704D45",
"%  c #714B4A",
"&  c #675248",
"*  c #6A5549",
"=  c #6C5A4C",
"-  c #75554C",
";  c #796656",
":  c #855B54",
">  c #8B5E5E",
",  c #876154",
"<  c #8B6A50",
"1  c #8E605D",
"2  c #91635D",
"3  c #976E5C",
"4  c #9C6D5B",
"5  c #85725E",
"6  c #9A7657",
"7  c #9F705A",
"8  c #A26B4D",
"9  c #A26D53",
"0  c #A67355",
"q  c #A97656",
"w  c #AB7957",
"e  c #A3725B",
"r  c #A9765A",
"t  c #AB7A5A",
"y  c #B07F57",
"u  c #B07E58",
"i  c #976662",
"p  c #956961",
"a  c #9B6A63",
"s  c #907A66",
"d  c #967D6A",
"f  c #A06E67",
"g  c #A16F68",
"h  c #A47661",
"j  c #AB7365",
"k  c #AD7A66",
"l  c #AC7768",
"z  c #AD7869",
"x  c #B07B65",
"c  c #B27B6C",
"v  c #B86E7D",
"b  c #B27474",
"n  c #B9747A",
"m  c #B97A78",
"M  c #C17B7F",
"N  c #73845D",
"B  c #76885E",
"V  c #7DA55D",
"C  c #778265",
"Z  c #7F9061",
"A  c #AF815F",
"S  c #B1835C",
"D  c #B6885E",
"F  c #B8955B",
"G  c #828265",
"H  c #8B8666",
"J  c #958169",
"K  c #9A816D",
"L  c #9C896F",
"P  c #819163",
"I  c #819F61",
"U  c #9A916E",
"Y  c #8B8B7E",
"T  c #9D8970",
"R  c #9B9172",
"E  c #96917F",
"W  c #A48166",
"Q  c #AF8265",
"!  c #B58464",
"~  c #BB8D62",
"^  c #B7846E",
"/  c #B68C6A",
"(  c #BC8B6C",
")  c #BC9266",
"_  c #BF916B",
"`  c #A38C72",
"'  c #AD8F78",
"]  c #BA8372",
"[  c #BD8A70",
"{  c #BD8378",
"}  c #A49075",
"|  c #AB987C",
" . c #B79873",
".. c #8EA462",
"X. c #91A766",
"o. c #95BC64",
"O. c #C2956F",
"+. c #C79869",
"@. c #C49A6C",
"#. c #C08F71",
"$. c #C48679",
"%. c #C98D7C",
"&. c #C39272",
"*. c #C99770",
"=. c #C6987D",
"-. c #CE9E7F",
";. c #D19C76",
":. c #CBA16F",
">. c #CBA671",
",. c #C1A57F",
"<. c #D5A777",
"1. c #ABCD6D",
"2. c #A9C779",
"3. c #C9E47C",
"4. c #C06F83",
"5. c #C17681",
"6. c #C87F86",
"7. c #C97F8A",
"8. c #6F8286",
"9. c #6A838B",
"0. c #738283",
"q. c #768A8C",
"w. c #788989",
"e. c #728C92",
"r. c #77A1AD",
"t. c #78A1AE",
"y. c #79AAB6",
"u. c #7CACB9",
"i. c #B4A487",
"p. c #BAA484",
"a. c #BAA78A",
"s. c #BDAA8B",
"d. c #C88582",
"f. c #CA828A",
"g. c #D19C86",
"h. c #D59F8D",
"j. c #D28D95",
"k. c #D49295",
"l. c #D69C90",
"z. c #D89D95",
"x. c #D79698",
"c. c #D99B9A",
"v. c #C3A781",
"b. c #C6AC84",
"n. c #C2AD8E",
"m. c #CFAB89",
"M. c #D0AE82",
"N. c #C4B08E",
"B. c #C8B28F",
"V. c #DBB789",
"C. c #CBB693",
"Z. c #CFB894",
"A. c #D2BB97",
"S. c #D5BE99",
"D. c #DC9AA0",
"F. c #D7B7A2",
"G. c #D6C794",
"H. c #D4C299",
"J. c #DCC49D",
"K. c #E3C18E",
"L. c #DFC3A3",
"P. c #DFC8A1",
"I. c #DEDCA8",
"U. c #E1C3A6",
"Y. c #E6CDA4",
"T. c #E8CFA6",
"R. c #E9EAB9",
"E. c #F0EFB9",
"W. c #F1F1BB",
"Q. c #82B4C1",
"!. c #8BBDC3",
"~. c #8EC1C3",
"^. c #8FC3CB",
"/. c #91C6C4",
"(. c #95CBC4",
"). c #90C5CB",
"_. c #95CCCC",
"`. c #98CFC8",
"'. c #97D0C3",
"]. c #9BD4C4",
"[. c #9ED8C3",
"{. c #9AD2CA",
"}. c #95CCD2",
"|. c #EFF6C2",
" X c #F6FEC0",
".X c #F2FDC4",
"XX c #F8FFC1",
/* pixels */
"T.T.T.T.T.T.T.T.T.T.T.T.T.T.T.T.T.T.T.T.T.T.T.T.T.T.T.T.T.T.T.T.T.T.T.T.T.T.T.T.T.T.T.T.T.T.T.T.",
"T.T.T.Y.J.T.T.T.T.J.T.T.T.T.Y.J.T.T.T.Y.J.T.T.T.T.T.T.T.T.S.s.s.P.T.Y.s.s.S.T.T.T.T.T.T.T.T.T.T.",
"Y.T.Y.Y.T.} o * N.T.T.T.T.T.T.T.T o * B.T.Y.Y.T.T.T.T.T.Y.R B Z U Z.U Z B R Y.T.T.T.T.T.T.T.T.T.",
"T.Y.Y.T.J.O { 2 * J.p.p.p.p.a.Z.- { : = T.Y.Y.T.T.T.T.T.Y.G 2.3...N ..3.2.G Y.T.T.T.T.T.T.T.T.T.",
"T.H.T.J.  k <._ : + % % % % # # k <./ : & T.Y.Y.T.T.T.T.T.R X.1.o.o.o.1.X.R T.T.T.T.T.T.T.T.T.T.",
"n.T.T O Q *.~ ~ ( #.#.#.#.#.#.&.( ~ _ &., o n.T.T.T.T.T.T.J.H P I V I P H J.T.T.T.T.T.T.T.T.T.T.",
"` T.& c @.D 9 r ) @.@.@.@.@.@.@.t 9 t +.%.# J T.T.T.Y.Y.T.T.s W U C U W d T.T.T.Y.T.T.T.T.T.T.T.",
"} T.= a t t w w w w w w w w w w w w w w z X L T.T.T.Y.Y.J.J.' [ ( W _ [ ` J.J.Y.Y.T.T.T.T.T.T.T.",
"} T.= a r t q 8 8 8 8 8 8 8 8 8 8 0 w w l X T T.T.T.T.K f p p a ! +.( a 2 p g L T.Y.T.T.T.T.T.T.",
"} T.= a t 8 t v.v.,.,.,.,.,.,.,.b./ 8 w z X T T.T.T.K ( :.@.@.6 h ;.h 6 @.@.:.( K T.T.T.T.T.T.T.",
"} T.= a r w b.R.R.R.R.R.R.R.R.R.|.H.Q w l X T T.T.T.d [ :.@.@.) < 3 < ) @.@.:.[ d T.T.T.T.T.T.T.",
"} T.= a 9 b.R.W.W.E.E.E.E.E.E.E.W.R.H.A j X T T.T.T.d =.K.V.V.V.M. .M.V.V.V.K.=.d T.T.T.T.T.T.T.",
"} T.= a S G..X X X X X X X X X XXX.XI.@.x . T T.T.T.K k t w w w w w w w w w t k K T.T.T.T.T.T.T.",
"} T.= a @.M.F.U.U.L.L.L.L.L.L.L.U.F.m.>.^ . L T.T.T.K x 7 1 2 2 2 2 2 2 2 > e x K T.T.T.T.T.T.T.",
"} T.= a _ $.4.f.f.f.f.f.f.f.f.f.f.5.n &.^ . L T.T.T.K x 4 4 t t 4 > 4 t t 4 4 x K T.T.T.T.T.T.T.",
"} T.= a m 6.j.x.x.x.x.x.x.x.x.x.c.k.f.M b . L T.T.T.K x 4 4 t w w w w w t 3 4 x K T.T.T.T.T.T.T.",
"} T.= a v 7.k.c.c.c.c.c.c.c.c.c.c.k.f.5.b . L T.T.T.K k u 4 1 2 2 2 2 2 1 4 u k K T.T.T.T.T.T.T.",
"} T.= a n f.k.c.c.c.c.c.c.c.c.c.c.k.f.5.b . L T.T.T.K k t w w w w w w w w w t k K T.T.T.T.T.T.T.",
"} T.= a n f.k.c.c.c.c.c.c.c.c.c.c.k.f.5.b . L T.T.T.K x e 1 2 2 2 2 2 2 2 1 e x K T.T.T.T.T.T.T.",
"} T.= a n f.k.c.c.c.c.c.c.c.c.c.c.k.f.5.b . L T.T.T.K x 4 4 t t 4 > 4 t t 4 4 x K T.T.T.T.T.T.T.",
"} T.= a n f.k.c.c.c.c.c.c.c.c.c.c.k.f.5.b . L T.T.T.K x 4 4 t w w w w w t 3 4 x K T.T.T.T.T.T.T.",
"} T.= a n f.k.c.c.c.c.c.c.c.c.c.c.k.f.5.b . L T.T.T.K k u 4 1 2 2 2 2 2 1 4 u k K T.T.T.T.T.T.T.",
"} T.= a n f.k.c.c.c.c.c.c.c.c.c.c.k.f.5.b . L T.T.T.K k t w w w w w w w w w t k K T.T.T.T.T.T.T.",
"} T.= a n 7.j.D.c.c.c.c.c.c.c.c.D.x.f.5.b . L T.T.Y.T.L f p p p p p p p p p a L T.Y.T.T.T.T.T.T.",
"} T.= a v d.-.g.c.D.D.D.D.D.D.D.h.-.%.5.b . L T.T.Y.T.Y.P.P.P.P.P.P.P.P.P.P.P.Y.T.T.T.T.T.T.T.T.",
"} T.= a m #.F ) g.z.l.l.l.l.l.l.O.F _ $.m . L T.T.T.T.T.T.T.T.T.T.T.T.T.T.T.T.T.T.T.T.T.T.T.T.T.",
"} T.= a O.~ 0 t _ @.@.@.@.@.@.@.S 0 S @.] . L T.T.T.T.T.T.T.T.T.T.T.T.T.T.T.T.T.T.T.T.T.T.T.T.T.",
"} T.= a ! S 0 w t S S S S S S S w 0 w S c . T T.T.T.T.T.T.T.T.T.T.T.T.T.T.T.T.T.T.T.T.T.T.T.T.T.",
"} T.= a r w t t q q q q w w q q t t w q j X T T.T.T.T.T.T.T.T.T.T.T.T.T.T.T.T.T.T.T.T.T.T.T.T.T.",
"} T.= a t t w t t t r r t t t t t w t t c O L T.T.T.T.T.T.T.T.T.T.T.T.T.T.T.T.T.T.T.T.T.T.T.T.T.",
"` T.= f t y r a i a a a a a a a i e t t c O L T.T.T.T.T.T.T.T.T.T.T.T.T.T.T.T.T.T.T.T.T.T.T.T.T.",
"S.T.B.* 3 %.: o ; = = = = = = = ; . ] c $ 5 S.T.T.T.T.T.T.T.T.T.T.T.T.T.T.T.T.T.T.T.T.T.T.T.T.T.",
"T.A.T.Y.o #   S.C.n.n.N.N.N.n.n.C.| @ . ; Y.Y.J.T.T.T.T.T.T.T.T.T.T.T.T.T.T.T.T.T.T.T.T.T.T.T.T.",
"Y.T.Y.Y.Y.P.Y e.e.e.e.e.e.e.e.e.e.e.Y P.Y.Y.Y.Y.T.T.T.T.T.T.T.T.T.T.T.T.T.T.T.T.T.T.T.T.T.T.T.T.",
"T.T.T.T.A.Y t.}._._.).^.^.^.)._.}.}.t.Y A.T.T.T.T.T.T.T.T.T.T.T.T.T.T.T.T.T.T.T.T.T.T.T.T.T.T.T.",
"T.T.T.T.s.9.Q.{.[.[.`.~.~.~.`.[.[.{.Q.9.i.T.T.T.T.T.T.T.T.T.T.T.T.T.T.T.T.T.T.T.T.T.T.T.T.T.T.T.",
"T.T.T.T.s.8.y.{.[.'./.~.~.~./.'.[.{.u.8.i.T.T.T.T.T.T.T.T.T.T.T.T.T.T.T.T.T.T.T.T.T.T.T.T.T.T.T.",
"T.T.T.T.n.0.y.`.'./.~.(.'.(.~./.'.`.u.0.s.T.T.T.T.T.T.T.T.T.T.T.T.T.T.T.T.T.T.T.T.T.T.T.T.T.T.T.",
"T.T.T.T.s.8.y././.~.(.].[.].(.~././.u.8.i.T.T.T.T.T.T.T.T.T.T.T.T.T.T.T.T.T.T.T.T.T.T.T.T.T.T.T.",
"T.T.T.T.n.0.y.^.!.~.'.[.[.[.'.~.!.^.u.0.s.T.T.T.T.T.T.T.T.T.T.T.T.T.T.T.T.T.T.T.T.T.T.T.T.T.T.T.",
"T.T.T.T.s.8.y././.~.(.].[.].(.~./.).u.8.i.T.T.T.T.T.T.T.T.T.T.T.T.T.T.T.T.T.T.T.T.T.T.T.T.T.T.T.",
"T.T.T.T.n.0.y.`.'./.~.(.'.(.~./.'.`.u.0.s.T.T.T.T.T.T.T.T.T.T.T.T.T.T.T.T.T.T.T.T.T.T.T.T.T.T.T.",
"T.T.T.T.s.8.y.{.[.'./.!.~.~./.'.[.{.u.8.i.T.T.T.T.T.T.T.T.T.T.T.T.T.T.T.T.T.T.T.T.T.T.T.T.T.T.T.",
"T.T.T.T.s.9.Q.{.[.[.`.~.~.~.`.[.[.{.Q.9.i.T.T.T.T.T.T.T.T.T.T.T.T.T.T.T.T.T.T.T.T.T.T.T.T.T.T.T.",
"T.T.T.T.J.Y r.}._.).).^.^.^.).)._.}.t.Y S.T.T.T.T.T.T.T.T.T.T.T.T.T.T.T.T.T.T.T.T.T.T.T.T.T.T.T.",
"T.T.T.T.T.Y.E q.q.w.w.w.w.w.w.w.q.q.E Y.T.T.T.T.T.T.T.T.T.T.T.T.T.T.T.T.T.T.T.T.T.T.T.T.T.T.T.T.",
"T.T.T.T.T.T.J.a.a.s.s.s.s.s.s.s.a.s.J.T.T.Y.T.T.T.T.T.T.T.T.T.T.T.T.T.T.T.T.T.T.T.T.T.T.T.T.T.T.",
"T.T.T.T.T.T.T.T.T.T.T.T.T.T.T.T.T.T.T.T.T.T.T.T.T.T.T.T.T.T.T.T.T.T.T.T.T.T.T.T.T.T.T.T.T.T.T.T."
};
