/* XPM */
static char *_93171bad8914af3e806eafe69ebe9f64t23yPBNC6vPP2GL[] = {
/* columns rows colors chars-per-pixel */
"48 48 47 1 ",
"  c #9CBD61",
". c #9CC063",
"X c #9BC668",
"o c #A3C464",
"O c #A6C967",
"+ c #ADC967",
"@ c #AECC68",
"# c #B0C764",
"$ c #B1CB66",
"% c #B3CD6A",
"& c #BACE6C",
"* c #B4D26B",
"= c #BDD26E",
"- c #BED96F",
"; c #BFD370",
": c #B5DD72",
"> c #BCDF72",
", c #C1D36F",
"< c #C2D46F",
"1 c #C0DA6F",
"2 c #C0D370",
"3 c #C2D470",
"4 c #C5D672",
"5 c #C8D672",
"6 c #C2D870",
"7 c #C6D873",
"8 c #C3DC72",
"9 c #C5DD73",
"0 c #C7D974",
"q c #C8D873",
"w c #C8DF73",
"e c #C8D974",
"r c #CDDB76",
"t c #C9DE74",
"y c #CCDF75",
"u c #C5E174",
"i c #C1E775",
"p c #C5E474",
"a c #CAE075",
"s c #CDE276",
"d c #CFE377",
"f c #C7EE7A",
"g c #C4EF7C",
"h c #CAEB79",
"j c #CAEC79",
"k c #D0E377",
"l c #D2F37D",
/* pixels */
":i-$$&=3,&&&=22,=&=,,,,&&&&====,4qe42&%%%$$#$-fg",
"O**%%=3442==222,===,3,,=&&=====244542&&%&&&&=8jf",
" @%%=347733;3333=;33333========23443=====,,,,8p>",
" +%=4e00733;333333333333==;2;;;;233===;334ee461*",
"o%&=4e0743;=;33333333333;;;333322,====344erre3=$",
"+===47443====33333333333;;33333332,===334qee43,%",
"=6634443;=&==33333333333;3333333333====33444336*",
"=w734433=====33333;;333333333333333;====3332;69=",
"6a733333====;3333333;33333333;;;333;===;2322;7w-",
"6a7333333;=,2233333;;33333;;;;;;;33;==;;333337a1",
"9s7322333333222233;;;;3333333333;;;;;;;;33333ta=",
"as7===33333322;233;;;;3333333333;;;;33;;;3347ts3",
"as7===333333322333;;;33333333333333333;;;;347ys6",
"wa6==;333333333;33;;;;33333333;3333333;==;337sk7",
"9w6;;;,33333;;;;3;;;;;;;3333;;;;333333;===;37ss7",
"-9633;===;333;;;3;;;;;;333;;;;;;333333;===337ts1",
"=97443====;3;33333333333;;333333333333====344w9=",
"=87743====23;33333333333;;33333333;333====34376@",
"=9644;====;;;;33;;333333;;;3;;33333333===;4431=O",
"-9333;;;=;;;;;33;333333;;;;;;;;;33333;;==344==*o",
"693;22233333;333;;3333;;;;;;;;33;;;333;;;343==*o",
"99;=;3333333;;33;;3333;;;;;;;;33;;;3333;;333==*o",
"tt3;33333333;;;;;;333;;;;;3;3333;;;333333333===o",
"sy6333333333;;;;;;3333;;3333333333;333;33333=-=+",
"as7444333;;;;3333333;;3333;;;;;;333333;33333,6-@",
"wt7q433;33;;33333333;33333;3;;3;3;3333;;3333371%",
"697443;;;;33333333;;;;3333333333;;;;33;;3333391%",
"-63432===333333333;;;;3333333333;;;;3====333371@",
"=-=33====33333333;;;3333333333333333,====;3336=+",
"=6=32====333333333;;;;33333333;;3333======3331=o",
"66333====3;;;;3333;;;;;;3333;;;;3333======2336=o",
"993332==;;;;;;333;;;;;;;333;;;;;333,======;=39-+",
"at44333233;;;;3;;;;333;;;;;;;;;3333;=2332;==6t9%",
"st74433333;;;;3;;;;;3333;;;;;;33333333333;==6ss=",
"at74433333333333;;3333333333;;33;;3333333;;;7ss=",
"w934433333333333;;3333333333;;;3;;33333;32237st%",
"97344333333333;33333333333;;;;33;;3333===3337t6@",
"673433===33333;;3333;33333;;3;333;3333===34477=o",
"66343====333;;;333;;;;333;;;3333333333===34471*.",
"66443====,33;;3333;;;;3333333333333333===3446-%.",
"16343=====3333333333333;33333333333333;==3436-*o",
"=33432=====;333;333333333333333333333;;==3336-*o",
"=,37443====;333==3333;==33333323333;;====3433=%o",
"==34q44,===;33;==;3333==,3333;;23=======;3433=$o",
"83=34443===333====3333==,33;;==23,=======3433=+o",
"h9,,,,,,,=3333,====222,,,,=====233;======3436=@ ",
"la,====,,44433,,,===,,,,,,===&=23433=====,439u*.",
"lp=&&%&=,444333,,=&&=,23,,==&&=,444443,,,,<7hj:X"
};
