/* XPM */
static char *ded1d9dac636478ca436beae196d28dfgWHW4l1ju1zwcslA[] = {
/* columns rows colors chars-per-pixel */
"48 48 193 2 ",
"   c #5A6C5E",
".  c #7E6C4D",
"X  c #706C5E",
"o  c #6F7F57",
"O  c #677A5D",
"+  c #717857",
"@  c #586E6C",
"#  c #5E7363",
"$  c #5B746F",
"%  c #5B7470",
"&  c #5C7D7B",
"*  c #7E6C6A",
"=  c #627664",
"-  c #657A64",
";  c #687B62",
":  c #60776B",
">  c #647D6B",
",  c #687E68",
"<  c #607770",
"1  c #607871",
"2  c #836E4D",
"3  c #92645B",
"4  c #9A685E",
"5  c #A37156",
"6  c #AA7757",
"7  c #AC7C5A",
"8  c #B47A55",
"9  c #B47B5A",
"0  c #966A61",
"q  c #877364",
"w  c #897766",
"e  c #8A756B",
"r  c #977766",
"t  c #8E7773",
"y  c #AE7D61",
"u  c #B77D6B",
"i  c #6F8057",
"p  c #6F8159",
"a  c #758556",
"s  c #7B8B56",
"d  c #738459",
"f  c #778859",
"g  c #7B8B58",
"h  c #5F8976",
"j  c #6A8060",
"k  c #648174",
"l  c #6D8671",
"z  c #628B77",
"x  c #63827C",
"c  c #668F7B",
"v  c #6C8C7C",
"b  c #679079",
"n  c #6D957C",
"m  c #6F987C",
"M  c #76947D",
"N  c #719A7D",
"B  c #8C9151",
"V  c #859759",
"C  c #8B9B59",
"Z  c #949B55",
"A  c #AF805E",
"S  c #B98056",
"D  c #B3845E",
"F  c #93A45B",
"G  c #96A85D",
"H  c #9AAC5F",
"J  c #939368",
"K  c #968F73",
"L  c #999977",
"P  c #AF8365",
"I  c #B58563",
"U  c #B68962",
"Y  c #BA8D64",
"T  c #BE9267",
"R  c #B2946F",
"E  c #BE946A",
"W  c #A29673",
"Q  c #AB9572",
"!  c #A29B74",
"~  c #B59873",
"^  c #9CBD61",
"/  c #9FA576",
"(  c #A2B361",
")  c #A6B863",
"_  c #ABBD65",
"`  c #A5A974",
"'  c #ABB672",
"]  c #AFBD75",
"[  c #B3BF73",
"{  c #C19568",
"}  c #C59B6C",
"|  c #CA9F6C",
" . c #CDA26C",
".. c #D2A569",
"X. c #D7AA6B",
"o. c #E2B267",
"O. c #9CC063",
"+. c #9BC668",
"@. c #A3C464",
"#. c #AFC167",
"$. c #A6C967",
"%. c #ADC967",
"&. c #AEC068",
"*. c #AECC68",
"=. c #B0C366",
"-. c #B1CB66",
";. c #B3C56B",
":. c #B4CC6A",
">. c #BACE6D",
",. c #B4D26B",
"<. c #BDD26E",
"1. c #BED96F",
"2. c #B4C372",
"3. c #B8C873",
"4. c #BCCC70",
"5. c #B4C179",
"6. c #BFD370",
"7. c #B5DD72",
"8. c #BCDF72",
"9. c #C1D36F",
"0. c #C0D96F",
"q. c #C2D571",
"w. c #C8D672",
"e. c #C4DA72",
"r. c #C9DC74",
"t. c #C4E374",
"y. c #CCE175",
"u. c #C5EE7A",
"i. c #CAEC79",
"p. c #D0E377",
"a. c #D2F37D",
"s. c #698684",
"d. c #6A8885",
"f. c #6B8B85",
"g. c #708F87",
"h. c #6D9482",
"j. c #719584",
"k. c #739A83",
"l. c #7E9D85",
"z. c #73948A",
"x. c #779B8E",
"c. c #779B91",
"v. c #799B96",
"b. c #7B9C96",
"n. c #7CA282",
"m. c #7DA396",
"M. c #7FA299",
"N. c #81A784",
"B. c #85AB86",
"V. c #88AE87",
"C. c #81A489",
"Z. c #8BAE8C",
"A. c #8DB28A",
"S. c #92B68C",
"D. c #96BA8E",
"F. c #99BD8F",
"G. c #83A592",
"H. c #86A993",
"J. c #8AAD94",
"K. c #8BAF98",
"L. c #8EB292",
"P. c #8EB49C",
"I. c #92B692",
"U. c #95BA92",
"Y. c #9ABE91",
"T. c #93B99F",
"R. c #92B8A0",
"E. c #9DC28F",
"W. c #9DC291",
"Q. c #9FC597",
"!. c #9FC599",
"~. c #A1C593",
"^. c #A1C697",
"/. c #A5CA94",
"(. c #A9CF96",
"). c #A2C798",
"_. c #A4CA99",
"`. c #A9CF98",
"'. c #ABD196",
"]. c #ADD399",
"[. c #AED599",
"{. c #B3D597",
"}. c #B1D69A",
"|. c #B4D99B",
" X c #BBDC9A",
".X c #BCDC9A",
"XX c #BDE29D",
"oX c #A1C8A0",
"OX c #C0DF9A",
"+X c #C4E19A",
"@X c #C7E39A",
"#X c #C3E59D",
"$X c #C9E49A",
/* pixels */
"7.t.1.-.-.:.<.q.9.>.>.>.<.q.q.9.>.>.<.9.9.9.9.>.>.>.>.<.<.<.<.9.q.w.r.q.q.>.:.:.:.-.-.-.-.1.u.u.",
"$.,.,.:.:.<.q.q.q.q.<.<.q.q.q.9.>.<.<.9.q.9.9.<.>.>.<.<.<.<.<.q.q.q.w.q.q.>.>.:.:.:.:.:.,.e.i.u.",
"^ *.:.:.<.q.q.e.e.q.q.q.q.<.q.q.<.6.F a s s s s s s s s s s a F q.q.q.q.<.<.<.<.<.9.9.9.9.e.t.8.",
"^ %.:.<.q.r.e.e.e.q.q.q.q.q.q.#.#.( , M.z.z.z.z.z.z.z.z.z.g.b.> H q.q.<.<.<.q.q.q.e.r.r.e.q.0.,.",
"@.:.>.<.q.r.e.e.q.q.<.<.6.q.<.d @ # M Q.^.).Q.^.Q.^.^._.Y.Z.U.l.: G <.<.<.<.q.q.w.r.r.r.r.q.9.-.",
"-.<.<.q.q.e.q.q.q.>.<.<.C a a v R.I.^.|. XXX#X#X#XXXXXXXXX{.{.).J.; s a ) <.q.9.q.w.r.r.q.q.9.:.",
"<.q.q.q.q.q.q.q.6.<.>.G > v.z.A.[.|.|.].[..X@X@X@X.X[. X$X@X X].~.C.d.z.d >.<.q.q.q.q.q.q.q.q.,.",
"<.r.e.q.q.q.q.6.<.<.F : l.Q.^.`.[.[.[.].]. X@X@X@X.X[. X$X@X X[.].Y.Z.I.d.o >.<.<.q.q.q.6.q.e.<.",
"q.y.e.q.q.q.q.q.<.F > P.). X#XXX X|.].[. X.X@X@X.X}.[.}. X|.[.].}.].'.'.oXv p ;.q.q.<.q.6.e.r.1.",
"q.y.e.q.q.q.q.q.H : K.~.]. X@X@X@X@X}.|.@X@X@X.X}.].[.[.[.[.}.}.].[.}.}.'.I.x.d >.q.q.q.q.e.y.0.",
"e.y.e.q.q.q.q.C > l.U.F.(. X@X@X@X@X.X.X@X@X.X}.[.].[.|..X.XOX X].].[.[.~.U.U.M p #.q.q.q.r.y.<.",
"y.y.e.<.>.<.q.a v.!.'.~.(.|. X X.X@X$X@X X X|.].].].[..X$X@X$X@X X|. X X~.D.E.P.@ =.q.q.e.r.y.q.",
"y.y.e.<.<.<.<.a z.^.XX[.[.].].].|.@X@X X].].].[.[.].[. X@XOXOXOX@X@X@X@X(.D.W.J.= H q.q.e.y.y.q.",
"r.y.q.<.<.#.d v S.`.|.[.[.[.[.].[.}.|.}.[.].[.[.[.[.[.}.}.}.}. X@X@X@X@X}.(.'.^.l.> C q.e.y.p.e.",
"e.r.q.6.6.( % P./.[.|.}.[.[.[.[.[.[.[.[.[.[.[.[.[.[.[.].].[.[.}. X.X X X|.|.|.[.U.b.o q.e.y.y.e.",
"1.e.q.q.q.) # G.W.'.[.].].[.[.[.].].].].[.[.[.[.[.[.[.[.].].].].].].].[.].].[.(.A.z.a q.e.r.y.0.",
"<.e.e.q.q.) # G.W.W.W.W.'.}.[.}.(.W.F.~.[.[.[.[.[.[.[.}.(.W.W.W.W.(.}.[./.Y.W./.Y.m.i q.q.r.e.<.",
"<.e.e.e.q.) # H.E.D.S.D.(.|.}.|./.S.A.W.}.|.}.}.[.].[.|.(.S.A.S.S./.|.|.~.S.D.I.M j G q.q.e.q.*.",
"<.e.e.q.q.) # H.W.F.D.F.(.}.].[./.D.S.W.].[.].].[.[.[.}.(.F.D.D.D./.}.[.~.D.F.G.# _ q.q.q.0.<.$.",
"1.e.q.q.q.( $ T.~.F.D.F.W.W.Y.W.F.D.D.F.W.W.W.W.].|.|.~.W.(.].].].~.W.W.F.F.E.G.  >.q.9.<.<.,.@.",
"q.e.q.6.q.=.s l Z.D.F.D.S.F.W.W.~.~.Y.D.D.D.S.D.W.(./.D.F.(.'.'.(.W.S.S.D.F.F.L.l g =.q.<.<.,.@.",
"e.e.6.<.<.q.q.s d.A.W.D.D.~.[.[.}.].W.D.D.D.D.D.D.D.D.D.D.D.D.D.D.D.D.D.D.D.D.W.S.z.a q.<.<.,.@.",
"y.r.q.6.>.q.q.C d.A.W.D.D.Y.~.~.~.~.F.D.D.D.D.D.D.D.D.D.D.D.D.D.D.D.D.D.D.D.D.~.Y.c.a q.<.<.<.@.",
"y.y.e.q.q.>.( O j.S.~.Y.F.D.D.D.D.D.D.F.Y.Y.Y.Y.F.D.D.D.D.D.D.F.Y.Y.Y.Y.Y.Y.Y.D.C.d.s q.<.1.<.%.",
"y.y.e.q.q._ - h.N A.W.D.D.D.D.D.D.D.D.D.D.D.D.D.D.D.D.D.D.D.D.D.D.D.D.D.D.F.F.B.b d.s q.9.q.1.*.",
"r.y.e.w.q.) : c.N n.n.n.D.A.n.k.B.F.Y.A.n.n.n.n.A.Y.D.D.D.D.Y.A.n.n.n.n.n.n.n.N b d.s q.q.e.0.:.",
"q.e.e.q.q._ = z.m b z n D.A.c h n.Y./.B.c z z c B.W.D.F.Y.Y.~.A.b z c c b b b m k.z.d q.q.e.0.:.",
"1.q.q.q.q.) = z.m n b N S.A.n c n.F.W.V.n n b n V.W.D.F.F.F.W.A.N b n n n n n N n d.g q.q.e.0.*.",
"<.1.<.q.q.( 1 m.N n n N k.N b c N n.n.B.A.A.A.A.F.~.W.V.n.n.n.N.A.A.A.S.n.b n k.> g =.q.q.q.<.%.",
"<.q.<.q.q._ a k n n n n N n.n.N.N b z k.S.S.S.S.A.A.A.N c b z N A.D.S.S.n.n n z.= :.q.<.q.0.<.@.",
"q.q.q.q.9.<.<.s d.h.n N A.Y.D.Y.B.n b n N N N N N N N n n n n n N N N N n n n z.= ) q.q.q.q.<.@.",
"e.e.q.q.<.q.<.s c.k.m N n.B.N.B.n.n n n b b b b b b b n n n n n b b b b n N N m.< ( 6.6.q.e.1.%.",
"y.r.q.q.q.q.q.C - v k.n n b b b b n n n n n n n n n n n n n n n n n m m N N k.k d _ <.<.q.r.e.:.",
"y.r.e.q.q.q.q.q.( : x.N m n n n n n n n n n n n n n n n n n n n n n m n N k.d.f <.6.<.<.q.y.y.<.",
"y.r.e.q.q.q.<.q.q.H - c.c.k.N N N N N N N N N N N N N N N N N N N j.z.z.m.x f >.q.6.<.6.e.y.y.<.",
"r.e.q.q.q.q.q.<.q.q.H = = > k.k.j.h.b c c c b b c b c c c b h.k.k.> O ; : d <.6.<.6.q.q.e.y.r.:.",
"e.e.q.q.q.q.q.q.6.6.>.=.>.g d.d.s.s.x & & & & & & & & & & & x d.d.g <.;.&.;.<.<.<.q.q.q.e.r.q.*.",
"q.e.q.e.q.q.<.<.<.<.q.q.q._ s s V s X e q w w w w w w w e * + V s _ q.q.q.q.<.>.<.q.q.q.e.e.<.@.",
"q.q.q.e.q.<.<.<.<.6.q.6.<.q.q.q.q.<.2 u 9 8 8 8 8 8 8 S 9 4 Z q.q.q.<.q.q.q.<.<.<.q.q.q.e.0.,.O.",
"q.q.e.e.q.<.<.<.<.9.q.q.q.q.q.q.q.:.. u U 9 6 6 6 6 6 D I 0 B q.q.q.q.q.q.q.<.<.<.q.q.q.q.1.:.O.",
"0.q.q.q.q.<.<.<.<.<.q.q.6.q.q.q.q.;.q y Y D 7 D D 7 7 U I 4 J q.q.q.q.q.q.q.6.<.<.q.q.q.q.1.,.@.",
"<.q.q.q.q.q.<.<.<.<.<.6.q.6.<.<.q.2.t 5 U Y Y U Y Y Y { A 3 L q.<.>.<.q.q.6.6.<.9.q.q.q.q.1.,.@.",
"<.9.q.e.q.q.q.9.<.<.<.6.q.>.2.2.<.2.e 5 U } E U T } }  .U 3 L q.2.2.;.<.6.<.<.<.<.q.q.q.q.<.:.@.",
"<.9.q.q.w.q.q.q.<.<.<.<.>.2.2.3./ w r Y T } } T } } } | { P r K ] 3.2.;.>.<.<.<.6.q.q.q.q.<.-.@.",
"e.q.9.q.q.q.q.q.<.<.<.<.2.5.2.<.L 0 T X.| | | } } } | |  . .y e ] 4.2.] ;.<.<.<.<.q.q.q.q.<.%.@.",
"i.e.9.9.9.9.9.9.9.<.q.<.2.5.2.2.2.` R o. ...| } } }  . .X...W 2.2.2.2.2.;.<.<.<.<.q.q.q.q.<.*.^ ",
"a.y.9.<.<.<.<.9.9.q.q.q.>.2.5.[ >.>.` W W ! Q ..o.E W ! W ! ' q.5.5.2.;.>.<.<.<.<.9.q.q.e.t.,.O.",
"a.t.<.:.:.:.:.<.9.q.q.q.q.>.2.2.;.2.;.>.>.9.` ~  .! >.<.>.>.2.[ 2.3.4.q.q.q.9.9.9.9.9.e.i.i.7.+."
};
