/* XPM */
static char *_8c146f744504c67debbd57f79d818c7YWc7xUv1zVjz3wTH[] = {
/* columns rows colors chars-per-pixel */
"48 48 214 2 ",
"   c #010101",
".  c #0B0706",
"X  c #130100",
"o  c #130B0C",
"O  c #1B0E0E",
"+  c #15100C",
"@  c #17130C",
"#  c #191B0E",
"$  c #1D1914",
"%  c #230706",
"&  c #251208",
"*  c #24110D",
"=  c #381A0B",
"-  c #200F11",
";  c #271613",
":  c #361A15",
">  c #1D2011",
",  c #3B240A",
"<  c #232715",
"1  c #282C17",
"2  c #292D18",
"3  c #342618",
"4  c #2E321A",
"5  c #30351C",
"6  c #36361D",
"7  c #001322",
"8  c #361D26",
"9  c #14292F",
"0  c #3A212B",
"q  c #383E21",
"w  c #38233C",
"e  c #2B373B",
"r  c #383933",
"t  c #48180B",
"y  c #641D1C",
"u  c #482B11",
"i  c #59291A",
"p  c #473413",
"a  c #7E3A1C",
"s  c #46292A",
"d  c #522E2D",
"f  c #5B2B28",
"g  c #453A23",
"h  c #462838",
"j  c #562E32",
"k  c #523132",
"l  c #553638",
"z  c #6C2D2E",
"x  c #65332A",
"c  c #743425",
"v  c #65393A",
"b  c #773E38",
"n  c #434A27",
"m  c #534437",
"M  c #555E32",
"N  c #7B4D2D",
"B  c #7D522E",
"V  c #7A4738",
"C  c #5C6536",
"Z  c #5F6938",
"A  c #626B39",
"S  c #69743E",
"D  c #6B3F40",
"F  c #3A474A",
"G  c #5B484C",
"H  c #4D4C50",
"J  c #764443",
"K  c #6C5144",
"L  c #6C7840",
"P  c #717C42",
"I  c #7C6A75",
"U  c #873316",
"Y  c #893C2C",
"T  c #BA6B10",
"R  c #8A562E",
"E  c #844439",
"W  c #944A3B",
"Q  c #AB512D",
"!  c #A34B36",
"~  c #B46E33",
"^  c #C7562F",
"/  c #C75A37",
"(  c #F75F28",
")  c #C66B31",
"_  c #D8633A",
"`  c #FE6028",
"'  c #EC6B3E",
"]  c #FF6433",
"[  c #FD6C3C",
"{  c #FF713F",
"}  c #974C41",
"|  c #855346",
" . c #AE5748",
".. c #9A6449",
"X. c #BE6F4A",
"o. c #BA6359",
"O. c #8D6D6B",
"+. c #AD796E",
"@. c #BA7778",
"#. c #CB6C4A",
"$. c #FA6F45",
"%. c #E9704D",
"&. c #FF7745",
"*. c #FB7449",
"=. c #FF7C4B",
"-. c #C77E7A",
";. c #7B8848",
":. c #BC8836",
">. c #E7801D",
",. c #C18325",
"<. c #D48B2B",
"1. c #D99326",
"2. c #D18C3E",
"3. c #D7973B",
"4. c #E29630",
"5. c #FFB62B",
"6. c #F0A63D",
"7. c #FEB839",
"8. c #FFC53C",
"9. c #86944E",
"0. c #899750",
"q. c #8D9C53",
"w. c #909F53",
"e. c #98A759",
"r. c #9DAD5C",
"t. c #9FB05D",
"y. c #A2B45F",
"u. c #9DBD62",
"i. c #A9BA62",
"p. c #CA914B",
"a. c #FF8849",
"s. c #FF9149",
"d. c #FF8753",
"f. c #FF9455",
"g. c #EDA94B",
"h. c #FFBA44",
"j. c #FFB748",
"k. c #FFBB4A",
"l. c #FCB657",
"z. c #CE9269",
"x. c #FF9A6D",
"c. c #D4A965",
"v. c #F4B26F",
"b. c #E5AA79",
"n. c #9DC365",
"m. c #A3C464",
"M. c #ACC967",
"N. c #ABCA68",
"B. c #B0C566",
"V. c #B1CB67",
"C. c #B3C568",
"Z. c #B3CC6A",
"A. c #BBCE6C",
"S. c #B5D36B",
"D. c #BDD26E",
"F. c #BED96F",
"G. c #BFD370",
"H. c #B8DB71",
"J. c #BCE072",
"K. c #FFC546",
"L. c #FFD647",
"P. c #FFCA59",
"I. c #C1D36F",
"U. c #C0DA6F",
"Y. c #C1D570",
"T. c #C5D672",
"R. c #C4D772",
"E. c #C8D672",
"W. c #C2D971",
"Q. c #C6D973",
"!. c #C4DA72",
"~. c #CADD74",
"^. c #FFC86A",
"/. c #FFDD7B",
"(. c #C4E475",
"). c #CCE175",
"_. c #C8EC79",
"`. c #D0E477",
"'. c #D2F47D",
"]. c #FFE57C",
"[. c #7A7287",
"{. c #598794",
"}. c #778182",
"|. c #A0939F",
" X c #BDAA94",
".X c #B6B2B0",
"XX c #D88983",
"oX c #FF9E81",
"OX c #D3BA9C",
"+X c #FFA385",
"@X c #C9B7AC",
"#X c #FFDA81",
"$X c #FFE382",
"%X c #DED2B6",
"&X c #F9CEB4",
"*X c #FFF9AD",
"=X c #B9BFC4",
"-X c #9AD1DF",
";X c #B8C4D2",
":X c #B4D2D8",
">X c #B9DEE7",
",X c #C8C4C4",
"<X c #D7CDCE",
"1X c #D9CAD9",
"2X c #FFEEC8",
"3X c #F6E7D7",
"4X c #FFFBDA",
"5X c #C6D3E4",
"6X c #D2D6E4",
"7X c #D3E7F5",
"8X c #E7E6ED",
"9X c #F4F4F7",
"0X c #FFFFF3",
"qX c #FFFFFE",
/* pixels */
"_._.F.V.B.B.V.V.V.Z.A.Y.R.Q.E.R.I.D.D.D.D.A.A.A.A.I.I.I.I.D.A.D.D.Y.Y.D.A.A.A.G.R.D.Z.V.V.F.(.H.",
"_._.W.D.A.A.A.A.A.A.A.Y.R.R.E.R.Y.D.D.D.D.D.A.A.D.I.R.R.I.D.D.D.D.Y.Y.D.D.D.Y.R.R.R.D.Z.V.S.S.N.",
"J.(.W.I.I.I.I.D.D.D.D.D.R.R.R.R.Y.D.D.D.D.D.D.D.D.R.R.R.R.R.G.F.G.R.R.G.G.R.R.R.Q.R.R.D.A.V.N.u.",
"S.U.W.R.Q.Q.Q.R.R.G.D.D.D.Y.Y.Y.G.G.G.G.G.G.D.D.R.R.R.R.R.R.R.R.R.R.R.G.R.R.R.Q.Q.Q.Q.R.D.Z.M.u.",
"V.F.R.Q.~.~.Q.Q.R.R.D.D.D.D.G.G.Y.Y.G.G.Y.G.R.R.R.R.R.R.R.R.R.R.R.R.R.G.D.G.R.R.Q.Q.Q.R.D.D.V.m.",
"Z.I.R.R.Q.Q.E.R.R.R.D.D.D.D.G.G.Y.Y.R.R.Y.Y.R.G.R.R.R.R.R.R.R.R.R.R.R.D.D.A.D.R.R.R.R.R.D.F.F.M.",
"D.W.R.R.R.R.R.R.R.D.D.D.D.R.R.R.Y.R.R.R.Y.Y.G.G.R.R.G.G.G.F.G.R.R.R.R.D.D.A.D.G.R.R.R.R.R.W.W.S.",
"F.Q.W.Y.Y.R.R.R.D.D.D.D.G.R.G.R.R.R.R.R.I.Y.R.G.G.G.G.G.G.G.G.R.R.R.R.D.D.D.D.D.R.R.R.R.R.Q.~.F.",
"F.~.W.G.G.Y.R.G.G.D.D.D.G.R.R.R.R.G.G.R.R.R.R.G.G.G.R.R.R.R.R.R.Y.Y.Y.D.D.D.D.G.G.R.R.R.R.Q.).U.",
"W.).Q.R.R.R.R.R.G.G.D.D.G.R.R.G.R.R.R.G.G.G.G.R.G.G.R.G.R.R.R.Y.R.Y.G.G.I.D.Y.R.G.R.R.R.R.Q.).W.",
"R.).Q.R.R.R.R.G.G.G.G.G.G.R.R.R.R.R.G.G.G.G.R.R.G.F.G.G.D.D.G.G.Y.Y.Y.Y.Y.Y.R.R.R.R.Y.Y.R.Q.).Q.",
"R.).~.Q.R.R.G.G.D.G.G.G.R.R.R.G.R.R.G.D.G.G.D.G.G.F.G.G.F.G.G.G.Y.D.G.R.Y.R.R.R.R.R.D.D.F.Q.).~.",
"W.).~.Q.R.R.G.D.D.G.R.R.R.R.G.G.R.G.G.D.G.D.D.R.R.R.R.R.G.G.G.G.G.D.G.R.R.R.R.R.R.R.D.D.D.Q.).~.",
"Q.`.~.Q.R.R.G.D.D.C.r.0.q.w.q.q.0.r.D.G.G.R.R.A.t.0.q.w.q.q.0.r.C.G.R.R.R.R.R.R.R.R.G.D.D.W.).~.",
"Q.`.~.Q.R.G.D.D.D.r.M > 2 5 5 1 # C C.G.G.R.R.C.C # 1 5 5 2 # M r.G.G.G.Y.Y.G.G.F.F.G.G.G.W.~.W.",
"I.).~.Q.R.G.D.D.D.0.# . * ; O o O $ Z Z.G.G.Z.A ; ; O O O o   > 0.F.G.G.G.G.G.D.D.D.G.R.R.W.Q.F.",
"D.Q.~.R.R.G.D.D.D.q.2 * x b d 0 d : o S D.D.S O f E j s d 0 o 2 q.G.G.G.G.G.D.D.D.D.G.R.R.Q.Q.F.",
"V.W.Q.R.R.R.D.D.D.w.5 : W o.} b J k ; # ;.;.# i W o.| D J d O 5 q.G.G.G.R.G.D.D.D.D.R.R.Q.Q.W.S.",
"N.F.W.R.R.R.G.D.D.w.5 ; E  .! c v h h $ 2 2 t Y !  .V v J d O 5 q.G.R.R.R.G.D.D.D.D.R.R.R.Q.W.F.",
"m.S.F.I.R.R.G.D.D.q.5 * c o.-.@...R ..N u m +.XXo.Y v l v s o 6 e.R.R.R.R.D.G.D.D.D.G.R.R.R.W.F.",
"m.S.F.D.R.R.G.G.G.q.5 % y @.1X3Xb.<.3.2.,.c.3X1X@.z j h l 0 o q y.R.R.R.G.D.G.R.G.G.G.G.G.G.Q.W.",
"m.S.F.D.R.R.R.G.G.w.5 & a b.4X4X/.7.K.K.8.].4X3Xz.! W E } x * < L y.w.r.D.R.R.Y.R.R.R.G.D.G.~.Q.",
"N.F.F.D.R.R.R.R.R.w.5 , ~ P.].].P.h.h.h.h.P.]./.l.2.#.%.%.! : . < 4 # C C.G.R.D.R.R.R.R.G.R.~.~.",
"N.F.I.F.R.R.R.R.R.w.5 p 3.K.4.<.6.k.j.j.k.6.<.1.7.k.s.=.d./ =   9 F F r S C.A.R.R.R.R.R.R.Q.).).",
"V.F.W.I.R.R.R.R.R.w.5 p 3.g.R N 2.K.k.k.K.2.N B 3.k.s.*.d.Q X 7 {.>X:X}.r C t.R.R.R.R.R.R.Q.~.~.",
"V.U.W.I.R.R.R.R.R.w.5 p 3.3.s 0 2.L.h.7.8.~ 8 0 :.h.a.*.=.^ t m @XqXqX:XF # 0.R.G.R.R.Q.Q.Q.~.Q.",
"V.U.Q.R.R.R.R.G.G.q.5 p 1.4.d k p.L.7.5.5.) s s ,.7.6.*.*.' ^ / %.&XqX-XF 1 q.G.G.G.R.Q.R.Q.Q.W.",
"V.U.Q.R.R.R.G.D.D.q.5 g c.b.l : R g.v.#X$Xz.s s z.^.f.[ $.=.d.&.` d.&X.Xr 1 q.D.D.D.R.R.R.R.W.F.",
"N.F.W.R.R.R.D.D.D.q.5 m %X%XG   % | OX0X0X X8 0 .X2Xx.] [ &.=.&.[ d.v.z.s # 0.D.D.D.D.R.R.F.F.F.",
"m.F.U.R.R.R.D.D.D.q.5 H 7XqX|.h w [.6XqXqX6XI [.7XqX+X` [ &.=.=.a.{ ( U = C t.D.D.D.D.R.R.F.W.F.",
"m.F.W.G.R.Y.D.D.A.q.5 H 5XqX8X@X.X1X9XqXqX9X<X6X9X9XoX` [ =.a.d.f.' U & A C.A.D.D.D.D.R.R.G.W.F.",
"N.F.Q.R.D.G.D.D.D.q.5 r  XqXqXqXqXqXqXqXqXqXqXqX0X&Xx.[ &.$._ / _ Y @ A Z.R.R.A.D.D.Y.R.R.R.Q.Q.",
"V.Q.~.R.D.D.G.Y.G.q.5 p 2.*XqXqXqXqXqXqXqXqXqXqX*Xl.f.=.d._ c & = 3 A C.G.G.G.G.G.G.Y.R.R.R.~.).",
"D.).).W.D.D.G.R.R.w.5 , T l.OX;X=X,X<X<X,X=X;XOXg.>.) / %.W O   o A C.I.G.D.G.F.R.R.R.R.R.R.~.).",
"D.).).Q.G.G.Y.R.R.w.5 : Q #.K e e G O.O.G e e K X.~ i u W V * < A C.I.I.R.G.R.R.R.R.R.R.R.R.~.).",
"A.~.).Q.R.Y.Y.G.G.w.5 - f f 6 5 o   % : 2 n n 4 f f     $ 8 o q i.R.R.D.G.R.R.R.R.R.R.R.R.R.Q.~.",
"N.W.~.Q.R.R.R.D.D.q.5 . O g 9.9.4   . 2 P B.B.P 6 O     . .   6 e.I.R.G.G.G.R.R.R.R.R.R.R.R.Q.Q.",
"m.F.Q.Q.R.R.R.D.D.q.5     n D.D.n     q i.R.R.i.q             5 w.R.R.G.G.G.G.D.D.D.R.R.R.R.Q.W.",
"n.S.W.Q.R.R.R.D.D.D.R.R.R.R.R.R.G.G.R.R.R.G.G.G.Y.Y.Y.Y.R.R.R.R.R.R.R.G.G.G.G.D.D.D.D.R.R.R.W.W.",
"n.V.F.W.R.R.R.D.D.D.R.R.R.R.R.R.G.R.R.R.R.R.G.G.Y.Y.Y.G.R.R.R.R.R.R.G.G.G.G.I.D.D.D.D.R.R.R.W.U.",
"m.S.F.W.R.R.R.D.D.G.R.R.R.R.G.G.R.R.R.R.Y.Y.R.G.G.G.G.G.G.G.R.R.R.R.R.R.R.R.D.D.D.D.D.R.R.R.W.F.",
"m.S.F.G.R.R.R.D.D.G.R.R.R.R.G.G.R.R.R.R.Y.Y.R.G.G.G.G.G.R.R.R.R.G.G.R.R.G.D.D.D.D.D.G.R.R.R.R.F.",
"m.V.F.G.R.R.R.D.D.D.D.G.G.G.G.G.Y.Y.R.R.R.I.D.D.D.G.G.R.R.R.R.F.F.G.R.R.G.D.D.D.G.R.R.Q.Q.R.I.F.",
"m.V.F.G.R.R.R.D.D.D.D.D.D.D.D.G.Y.G.G.R.R.R.I.D.D.D.G.R.R.R.G.D.D.G.R.R.G.D.D.D.R.R.R.Q.R.R.F.F.",
"m.M.F.R.R.R.R.D.D.D.D.D.D.D.Y.R.G.D.D.G.R.R.R.I.D.D.R.R.R.R.D.D.D.F.R.R.I.D.D.D.R.R.R.R.R.D.R.W.",
"u.M.F.W.R.R.R.D.D.D.D.D.D.R.R.R.Y.D.D.D.D.I.I.I.I.I.Y.Y.R.D.D.D.D.F.R.R.R.Y.D.I.I.I.I.I.I.F.Q._.",
"n.S.(.Q.R.R.I.D.D.D.D.F.R.R.R.Y.I.D.A.D.D.I.I.I.I.I.I.I.D.D.D.I.I.R.R.R.R.R.I.I.I.D.D.D.A.I.).'.",
"n.H._.).R.I.I.I.I.I.R.R.R.R.R.R.I.A.A.A.D.D.I.I.R.Y.I.D.A.D.D.I.I.R.R.R.R.R.R.I.D.A.Z.A.A.D.(.'."
};
