/* XPM */
static char *e88cd4650c9149809d473429dc60ece2UFjvAEmn08Eb83Eo[] = {
/* columns rows colors chars-per-pixel */
"48 48 216 2 ",
"   c #010101",
".  c #0C0806",
"X  c #130100",
"o  c #140C0D",
"O  c #1B0E0E",
"+  c #13140C",
"@  c #1C120E",
"#  c #191B0E",
"$  c #1B0F1A",
"%  c #1D1316",
"&  c #1D1D11",
"*  c #240605",
"=  c #23110C",
"-  c #291209",
";  c #37190C",
":  c #200F10",
">  c #281614",
",  c #361B16",
"<  c #1D2011",
"1  c #3B230A",
"2  c #262A16",
"3  c #282A16",
"4  c #292D18",
"5  c #352418",
"6  c #2E321B",
"7  c #30361D",
"8  c #37371E",
"9  c #001321",
"0  c #361D27",
"q  c #14292F",
"w  c #39212B",
"e  c #383E21",
"r  c #37233C",
"t  c #2B373B",
"y  c #383A33",
"u  c #48180B",
"i  c #631C1B",
"p  c #4A2914",
"a  c #463313",
"s  c #6F341B",
"d  c #46292A",
"f  c #47292A",
"g  c #512E2D",
"h  c #5B2B28",
"j  c #453A22",
"k  c #58312F",
"l  c #462A37",
"z  c #562E32",
"x  c #4F3133",
"c  c #573739",
"v  c #65332A",
"b  c #733525",
"n  c #653A3A",
"m  c #703231",
"M  c #434A27",
"N  c #534337",
"B  c #565E32",
"V  c #7B4D2D",
"C  c #7C522D",
"Z  c #7B4638",
"A  c #5C6536",
"S  c #5F6837",
"D  c #616837",
"F  c #636D39",
"G  c #6A743F",
"H  c #6A3F40",
"J  c #3A484B",
"K  c #4C4C4F",
"L  c #5B494D",
"P  c #764343",
"I  c #6C5144",
"U  c #717C42",
"Y  c #7C6B74",
"T  c #873317",
"R  c #893C2D",
"E  c #BA6A10",
"W  c #8A572E",
"Q  c #87453A",
"!  c #95493A",
"~  c #AB512D",
"^  c #A44B36",
"/  c #B06732",
"(  c #C6552F",
")  c #C75A36",
"_  c #F05F2D",
"`  c #C66B31",
"'  c #D8633A",
"]  c #FE6026",
"[  c #EC6B3F",
"{  c #FF6533",
"}  c #FD6C3B",
"|  c #984C42",
" . c #865445",
".. c #AD5749",
"X. c #9B6449",
"o. c #BD704A",
"O. c #BA6359",
"+. c #8D6E6B",
"@. c #AD786E",
"#. c #BA7778",
"$. c #CB6C4A",
"%. c #FD6F46",
"&. c #E8704D",
"*. c #FF7644",
"=. c #FA7348",
"-. c #FF7B4B",
";. c #C77F7A",
":. c #7B8848",
">. c #BC8437",
",. c #E8801E",
"<. c #C18325",
"1. c #D48A2B",
"2. c #D99326",
"3. c #D08C3E",
"4. c #D7973A",
"5. c #E39630",
"6. c #FFB62B",
"7. c #F0A63D",
"8. c #FEB839",
"9. c #FFC43D",
"0. c #87954E",
"q. c #899650",
"w. c #8D9C53",
"e. c #909F54",
"r. c #95A557",
"t. c #9DAD5C",
"y. c #9FB05D",
"u. c #A3B45F",
"i. c #9CBD61",
"p. c #A9BA62",
"a. c #CA914B",
"s. c #FF8A46",
"d. c #FF9249",
"f. c #FF8451",
"g. c #FF8A54",
"h. c #FF9556",
"j. c #EDA94B",
"k. c #FFBA44",
"l. c #FFB748",
"z. c #FFBB4A",
"x. c #FDB657",
"c. c #CE9269",
"v. c #FF9A6D",
"b. c #D3A966",
"n. c #F4B26F",
"m. c #E4A97A",
"M. c #9CC264",
"N. c #A3C464",
"B. c #A6C967",
"V. c #ADC967",
"C. c #AECC68",
"Z. c #B0C466",
"A. c #B1CB66",
"S. c #B3C568",
"D. c #B4CC6A",
"F. c #BBCE6C",
"G. c #B4D26B",
"H. c #BDD26E",
"J. c #BED96F",
"K. c #BFD370",
"L. c #B7DD72",
"P. c #FFC747",
"I. c #FFD648",
"U. c #FFCA59",
"Y. c #C1D36F",
"T. c #C0D96F",
"R. c #C1D470",
"E. c #C2D571",
"W. c #C4D672",
"Q. c #C8D672",
"!. c #C2D971",
"~. c #C6D972",
"^. c #C4DA72",
"/. c #C9D974",
"(. c #CADD74",
"). c #FFC86A",
"_. c #FFDD7B",
"`. c #CBE175",
"'. c #CDE276",
"]. c #C6E977",
"[. c #D0E377",
"{. c #D2F37D",
"}. c #FFE47C",
"|. c #7A7287",
" X c #598793",
".X c #778183",
"XX c #A0949F",
"oX c #BDAA94",
"OX c #B6B2B0",
"+X c #D88983",
"@X c #FF9F81",
"#X c #D3BA9D",
"$X c #FFA487",
"%X c #C9B6AC",
"&X c #FFD981",
"*X c #FFE382",
"=X c #DDD1B7",
"-X c #F9CFB4",
";X c #FFF9AD",
":X c #B9BFC4",
">X c #9AD1DF",
",X c #B6CBD5",
"<X c #B8DFE7",
"1X c #C8C4C4",
"2X c #D7CDCE",
"3X c #D9CAD9",
"4X c #FFEEC8",
"5X c #F6E7D7",
"6X c #FFFADA",
"7X c #C6D3E4",
"8X c #D3D6E4",
"9X c #D3E6F5",
"0X c #E8E7EF",
"qX c #FFFFF3",
"wX c #F4F4F8",
"eX c #FFFFFE",
/* pixels */
"L.].J.A.A.D.H.E.Y.F.F.F.H.E.E.Y.F.F.H.Y.Y.Y.Y.F.F.F.F.H.H.H.H.Y.W.Q./.W.E.F.D.S.S.A.A.Z.A.J.].].",
"B.G.G.D.D.H.E.W.W.E.H.H.E.E.E.Y.H.H.H.Y.E.Y.Y.H.F.F.H.H.H.H.H.E.W.W.Q.W.E.F.F.D.D.D.D.D.H.~.].].",
"i.C.D.D.H.E.W.~.~.E.E.K.E.E.E.E.H.K.E.E.E.E.E.H.H.H.H.H.H.H.H.E.E.W.W.E.H.H.H.H.H.Y.Y.Y.Y.~.].L.",
"i.V.D.H.W./.~.~.~.E.E.K.E.E.E.E.E.E.E.E.E.E.E.E.H.H.K.E.K.K.K.K.E.E.E.H.H.H.K.E.W.~././.W.!.T.G.",
"N.D.F.H.W./.~.~.W.E.K.H.K.E.E.E.E.E.E.E.E.E.E.E.K.K.K.E.E.E.E.E.E.Y.H.H.H.H.E.W.Q./.(.(./.E.H.A.",
"V.H.H.H.W.~.W.W.E.H.H.H.H.E.E.E.E.E.E.E.E.E.E.E.K.K.E.E.E.E.E.E.E.E.Y.H.H.H.E.E.W.Q././.W.E.Y.D.",
"H.!.!.E.W.W.W.E.K.H.F.H.H.E.E.E.E.E.E.E.E.E.E.E.K.K.E.E.E.E.E.E.E.E.E.H.H.H.H.E.E.W.W.W.E.E.!.G.",
"H.(.~.E.W.W.E.E.H.H.H.H.H.E.E.E.E.E.K.K.E.K.E.E.E.E.E.E.E.E.E.E.E.E.E.K.H.H.H.H.E.E.E.E.K.!.~.H.",
"!.`.~.E.E.E.E.E.H.H.H.H.K.E.E.E.E.E.E.K.K.K.E.E.E.E.E.E.E.K.E.E.E.E.E.K.H.H.H.K.E.E.E.E.K.~.(.J.",
"!.`.~.E.E.E.E.E.E.K.H.Y.E.E.E.E.E.E.E.K.K.E.E.E.E.E.K.E.K.K.E.E.E.E.E.K.H.H.K.K.E.E.E.E.E.~.`.T.",
"~.'.~.E.E.E.E.E.E.E.E.E.E.E.E.E.E.E.K.K.E.E.E.E.E.E.E.E.E.E.E.E.E.E.E.K.K.K.K.K.E.E.E.E.E.(.`.H.",
"(.'.~.H.H.H.E.E.E.E.E.E.E.K.H.E.E.E.K.K.K.K.E.E.E.H.K.K.H.E.K.E.K.K.E.E.E.K.K.H.K.E.E.W.~.(.'.E.",
"`.'.~.H.H.H.E.E.E.E.E.E.E.H.H.E.E.E.E.K.E.E.E.E.E.H.K.H.H.K.K.K.E.E.E.E.E.E.K.H.K.K.E.W.~.(.'.!.",
"(.`.!.H.H.K.E.E.E.E.E.E.K.K.E.S.t.q.w.w.e.w.q.t.F.E.E.E.E.F.y.0.w.e.e.w.q.t.S.H.H.K.E.E.~.'.[.~.",
"~.(.!.K.K.K.Y.E.E.E.E.E.K.K.K.t.B & 4 7 7 3 # A S.E.E.E.E.S.A # 3 7 7 4 < B t.H.H.H.K.E.~.'.'.~.",
"J.~.!.E.E.K.H.H.H.K.E.E.E.K.K.q.&   o O O @ > > D D.E.E.D.S & O O @ > = . < q.H.H.H.E.E.~.(.'.T.",
"H.~.~.W.W.E.H.H.H.H.K.K.E.E.E.w.4 o 5 g d k Q h @ G Y.H.G + , g d g m v = 4 w.H.H.H.E.W.W.(.~.H.",
"H.~.~.~.W.E.H.H.H.H.K.K.E.E.E.e.7 O z P H  .O.! p # :.:.# > x P m | $.! , 7 w.K.H.H.E.W.E.~.!.C.",
"H.~.E.W.W.K.H.H.H.H.K.E.E.E.E.e.7 O g P n Z ..^ R u 4 4 $ l l v b ^ ..Q > 7 w.K.H.K.W.W.E.T.H.B.",
"J.~.E.E.E.K.H.H.H.K.H.E.E.E.E.r.7 O d n c n R O.+X@.N a V X.W X.#.;.O.m = 7 w.H.H.E.W.W.H.H.G.N.",
"!.~.E.K.E.E.E.E.E.H.H.E.E.E.E.u.8 o w c l k b #.3X5Xb.<.3.4.1.m.5X3X#.i * 7 w.K.K.E.W.E.H.H.G.N.",
"~.~.K.H.K.E.E.E.K.E.E.F.y.w.u.G 2 > v | Q ! ^ c.5X6X}.9.P.P.8._.6X6Xm.b - 7 e.K.K.E.E.E.H.H.G.N.",
"`.(.E.K.E.E.E.E.H.E.E.S.A & 6 2 . , ^ =.&.$.3.x._.}.U.k.k.k.8.U.}._.U./ 1 7 e.Y.E.E.E.E.H.H.H.N.",
"'.'.~.E.E.E.E.E.E.F.S.G y J J q   ; ) g.-.d.z.8.2.1.7.z.l.l.z.7.1.5.P.4.a 7 e.E.E.E.E.E.H.J.H.V.",
"`.'.~.W.W.W.E.E.E.t.A y .X,X<X X9 X ~ g.-.d.z.4.C V 3.P.k.z.P.3.V W l.4.a 7 r.E.E.E.E.E.Y.!.J.C.",
"(.(.~.Q.W.E.E.K.E.0.# J ,XeXeX%XN u ( -.%.s.k.>.0 0 >.9.8.k.I.a.w d 4.4.a 7 e.Y.E.E.E.E.E.~.T.D.",
"!.~.~.W.W.E.K.K.K.w.3 J >XeX-X&.) ( [ -.%.s.6.<.d d ` 6.6.8.I.a.x g 5.2.a 7 e.K.E.E.E.E.E.~.T.D.",
"J.!.E.W.E.E.H.H.H.w.3 y OX-Xg.] *.g.-.%.} h.).c.d d c.*X&Xn.j.W , c m.b.j 7 w.H.H.E.E.E.E.~.T.C.",
"H.J.H.E.E.H.H.H.H.0.# d c.n.f.} *.-.*.} { v.4XOXw 0 oXqXqX#X .*   L =X=XN 7 w.H.H.K.E.E.E.!.H.V.",
"H.!.H.E.E.H.H.H.H.t.A ; T _ *.f.-.-.*.} ] $XeX9X|.Y 8XeXeX8X|.r l XXeX9XK 7 w.H.H.H.E.E.E.T.H.N.",
"!.!.E.E.E.H.H.H.Y.F.S.D @ T [ h.g.f.-.} ] @XwXwX8X2XwXeXeXwX3XOX%X0XeX7XK 7 w.H.H.H.E.E.E.!.H.N.",
"~.~.E.E.E.E.H.H.F.E.E.S.F @ R ' ) ' =.*.} v.-XqXeXeXeXeXeXeXeXeXeXeXqXoXy 7 w.H.H.H.K.H.E.~.J.V.",
"`.(.W.W.E.E.E.K.K.E.E.E.D.S 5 , - b ' g.-.h.x.;XqXeXeXeXeXeXeXeXeXqX;X3.a 7 e.E.E.K.H.H.!.(.~.D.",
"'.(.W.W.W.E.E.E.E.H.H.E.E.S.F .   O ^ =.) ` ,.j.#X,X:X1X2X2X1X:X,X#Xx.E 1 7 e.E.E.K.H.H.!.'.'.H.",
"`.(.W.W.W.E.E.E.E.E.K.E.E.E.S.F 2 : Z ! p s / o.I t t L +.+.L t t I $./ , 7 r.E.E.K.K.K.~.'.'.H.",
"(.~.E.W.W.E.E.E.E.E.E.H.H.E.E.p.e o 0 %     g h 6 M M 4 ; *   + 7 8 h h : 7 e.K.E.E.E.E.~.'.(.D.",
"~.~.E.W.W.E.E.E.K.K.E.E.K.Y.Y.r.7   . .     O 8 U Z.Z.U 4 X   6 0.0.j O . 7 w.H.H.E.E.E.~.(.!.C.",
"!.~.E.W.E.E.H.H.H.E.K.E.E.E.E.e.7             e p.E.E.p.e     M K.H.M     7 w.H.H.E.W.W.~.~.H.N.",
"!.!.E.W.E.H.H.H.H.K.E.E.E.E.K.E.E.E.E.E.E.E.E.E.E.E.E.E.E.E.E.E.K.E.E.E.E.E.H.H.H.E.W.W.~.T.G.M.",
"!.!.W.W.E.H.H.H.H.H.E.E.E.K.E.E.E.E.E.K.K.E.E.E.E.E.E.E.E.E.E.E.K.E.E.E.E.E.H.H.H.E.W.W.!.J.D.M.",
"T.!.E.W.E.H.H.H.H.H.E.E.E.E.E.E.E.E.E.E.E.E.K.K.E.E.E.E.E.E.E.E.E.E.E.E.E.E.K.H.H.E.W.E.!.J.G.N.",
"H.E.E.W.E.E.H.H.H.H.H.K.E.E.E.E.E.E.E.E.E.E.E.K.E.E.E.E.E.E.E.E.E.E.E.E.E.K.K.H.H.E.E.E.!.J.G.N.",
"H.Y.E.~.W.W.E.Y.H.H.H.K.E.E.E.H.H.E.E.E.E.K.H.H.K.E.E.E.E.E.E.E.E.E.E.K.K.H.H.H.H.E.W.E.E.H.D.N.",
"H.H.E.W.Q.W.W.E.H.H.H.K.E.E.K.H.H.K.E.E.E.E.H.H.H.E.E.E.E.K.K.E.E.H.H.H.H.H.H.H.K.E.W.E.E.H.A.N.",
"~.E.H.E.W.W.W.E.H.H.H.E.E.E.H.H.H.H.E.E.E.E.H.H.Y.E.E.K.K.H.H.E.E.Y.H.H.H.H.H.H.H.E.~.E.E.H.V.N.",
"].~.Y.Y.Y.Y.Y.Y.Y.H.E.E.E.E.Y.H.H.H.H.E.E.E.Y.Y.Y.Y.Y.H.H.H.H.E.E.E.K.H.H.H.H.H.H.E.W.E.!.H.C.i.",
"{.`.Y.H.H.H.H.Y.Y.W.W.W.E.E.Y.Y.Y.H.H.H.Y.Y.Y.Y.Y.Y.Y.H.H.F.H.E.E.W.E.E.H.H.H.H.H.Y.W.E.~.`.G.M.",
"{.`.H.D.D.D.D.H.Y.W.W.W.E.E.E.Y.Y.H.F.F.H.Y.E.E.Y.Y.H.H.F.F.H.Y.W.W.W.W.W.E.Y.Y.Y.Y.Y.~.].].L.M."
};
