/* XPM */
static char *f352069aeae54484fad5e9d2a9ffae4eRdiaLLFRuvF5OrjH[] = {
/* columns rows colors chars-per-pixel */
"48 48 143 2 ",
"   c #48504F",
".  c #474C51",
"X  c #4C5253",
"o  c #545D5C",
"O  c #576160",
"+  c #5A6363",
"@  c #606766",
"#  c #646D6A",
"$  c #63726E",
"%  c #68726D",
"&  c #6C7571",
"*  c #607C74",
"=  c #6E7973",
"-  c #6C7E7A",
";  c #717B75",
":  c #757E78",
">  c #6B8272",
",  c #6E837E",
"<  c #76827B",
"1  c #7A847D",
"2  c #778F7E",
"3  c #7F887E",
"4  c #6A8E85",
"5  c #7E8681",
"6  c #758C85",
"7  c #7C8A82",
"8  c #7A928A",
"9  c #749D92",
"0  c #7AA699",
"q  c #7DAA9D",
"w  c #828C84",
"e  c #869087",
"r  c #879188",
"t  c #8B948B",
"y  c #8E998E",
"u  c #909B8F",
"i  c #869E94",
"p  c #899990",
"a  c #939C92",
"s  c #83A296",
"d  c #8EAB9D",
"f  c #95A194",
"g  c #99A397",
"h  c #9CA69A",
"j  c #92AC9A",
"k  c #9EA99B",
"l  c #A1AC9E",
"z  c #87ADA1",
"x  c #89ACA1",
"c  c #93AFA3",
"v  c #99AFA4",
"b  c #87B2A5",
"n  c #8CB3A6",
"m  c #87B3A8",
"M  c #8BB6AA",
"N  c #8BB8AC",
"B  c #97B1A5",
"V  c #9EB7A3",
"C  c #91B4AE",
"Z  c #9EB6AA",
"A  c #8FBAB0",
"S  c #90BEB0",
"D  c #A2A5A1",
"F  c #A5AEA1",
"G  c #A8AFA0",
"H  c #A7B0A2",
"J  c #ABB4A5",
"K  c #A8BBA7",
"L  c #ADB6A9",
"P  c #A4BAAA",
"I  c #ACBBAB",
"U  c #B3BBAD",
"Y  c #BABEB4",
"T  c #98C1A5",
"R  c #8EC2B2",
"E  c #93C3B4",
"W  c #9EC5B0",
"Q  c #9DCCB5",
"!  c #95C4B9",
"~  c #96CCBD",
"^  c #99CCBB",
"/  c #9FD1BA",
"(  c #A0C3B4",
")  c #AEC2B5",
"_  c #B6C1B2",
"`  c #BCC4B6",
"'  c #BFC6BB",
"]  c #A2D6BF",
"[  c #ACDDBF",
"{  c #B0DFBE",
"}  c #AFE0BE",
"|  c #B2E1BD",
" . c #BAE4BC",
".. c #C0C7B8",
"X. c #C4CBBB",
"o. c #C9CEBD",
"O. c #9AC3C2",
"+. c #96CFC1",
"@. c #97D2C4",
"#. c #9BD4C3",
"$. c #AFC3C0",
"%. c #B2C8CD",
"&. c #A1D7C2",
"*. c #A3D8C1",
"=. c #A4D9C1",
"-. c #A7D9C6",
";. c #A8DBC0",
":. c #ABDDC0",
">. c #B2DED0",
",. c #BBE4C9",
"<. c #C7C9C1",
"1. c #C9CFC0",
"2. c #C5D6C3",
"3. c #CAD1C1",
"4. c #CFD4C7",
"5. c #C3D6C9",
"6. c #CFD3C8",
"7. c #D1D7C6",
"8. c #D4DAC9",
"9. c #D7DACE",
"0. c #DADDD1",
"q. c #DCDED4",
"w. c #CFEBDC",
"e. c #DEE5D3",
"r. c #DEE3D7",
"t. c #DAE2DD",
"y. c #DCF0DE",
"u. c #E2E6DA",
"i. c #E5EADC",
"p. c #E9EDD9",
"a. c #CFDBE5",
"s. c #D2EBE2",
"d. c #DFE1EA",
"f. c #DBEFE9",
"g. c #DCF0EA",
"h. c #ECEFE4",
"j. c #E2F2ED",
"k. c #EEF8EF",
"l. c #F2F6E3",
"z. c #F7FAEC",
"x. c #F9FBEF",
"c. c #FAFCF4",
"v. c white",
/* pixels */
"#.#.#.#.#.#.#.#.#.=.| | [ #.#.#.#.#.#.#.#.#.#.| | *.#.#.#.#.#.#.#.#.#.*. .#.#.#.#.#.#.#.#.#.#.=.",
"#.#.#.#.#.#.#.#.#.=.[ [ ;.#.#.#.#.#.#.#.#.#.#.{ { &.#.#.#.#.#.#.#.#.#.*.| #.#.#.#.#.#.#.#.#.#.=.",
"#.#.#.#.#.@.@.#.#.*.=.=.*.#.#.#.#.#.@.#.#.#.#.;.;.#.#.#.#.#.#.@.@.#.#.*.[ #.#.#.#.#.#.#.#.#.#.*.",
"#.#.#.#.#.#.#.#.#.#.#.#.#.#.#.#.#.#.#.#.#.#.#.&.&.#.#.#.#.#.#.@.@.#.#.#.=.#.#.#.#.#.#.#.@.@.#.&.",
"#.#.#.#.#.&.&.#.#.#.@.@.#.#.#.#.#.#.#.#.#.#.#.@.@.#.#.#.#.#.#.#.#.#.#.#.#.#.#.#.#.#.#.#.#.#.#.#.",
"#.#.#.#.&.[ [ #.#.#.@.@.#.#.#.#.#.*.=.*.#.#.#.@.@.#.#.#.#.#.#.=.=.#.#.#.@.#.#.#.#.#.#.#.*.&.#.#.",
"#.#.#.#.*.| [ #.#.#.#.#.#.#.#.#.@.:.[ ;.#.#.#.#.#.#.#.#.#.#.#.[ [ #.#.#.#.#.#.#.#.#.#.=.[ ;.#.#.",
"#.#.#.#.*.| [ #.#.#.#.#.#.#.#.#.@.[ { :.#.#.#.#.#.#.#.#.#.#.^ j j ^ #.#.#.#.#.#.#.#.#.=.{ [ @.#.",
"#.#.#.#.&.:.:.#.#.#.#.#.#.#.#.#.#.;.[ =.#.#.#.#.#.#.#.#.#.^ i < w c #.#.#.#.#.#.#.#.#.=.[ [ @.#.",
"#.#.#.#.#.*.*.#.#.#.#.#.#.#.#.#.#.*.*.&.#.#.#.#.#.#.#.#.E 6 y L J k s #.#.#.#.#.#.#.#.*.;.=.#.#.",
"#.#.#.#.#.#.#.#.#.#.#.#.#.#.#.#.#.#.#.#.#.#.#.#.#.#.#.#.N + r ` ` _ 1 * ~ #.#.#.#.#.#.#.#.#.#.#.",
"@.#.#.#.#.@.@.#.#.#.#.#.#.#.#.#.#.@.@.#.#.#.#.#.#.#.#.#.N o 1 J L ` F 1 4 #.#.#.#.#.#.#.@.#.#.#.",
"@.#.#.#.#.#.#.#.#.#.#.@.@.@.@.#.#.#.#.#.#.#.#.#.#.@.@.#.m o 3 J l F L U ; 4 @.#.#.#.#.#.@.#.#.#.",
"#.#.#.#.#.#.#.#.#.#.#.#.#.#.#.#.#.#.#.#.#.#.#.#.#.#.#.b $ + t J l k l F a o 9 #.#.#.#.#.#.#.#.#.",
"=.#.#.#.#.#.#.#.#.#.#.*.*.&.&.#.#.#.#.#.#.#.#.#.#.-.( @ X : y k h l t ; 3 : + 0 #.#.#.#.#.#.#.#.",
"[ #.#.#.#.#.#.#.#.#.#.[ [ [ =.#.#.#.#.#.#.#.#.#.=.w.0.#   w 1 : 1 3 1 ; 1 # X t n ~ #.#.#.#.#.#.",
"| #.#.#.#.#.#.#.#.#.#.| { { [ @.#.#.#.#.#.#.#.@.[ ,.2.Y t ; % + + o # w l t : q.) ~ #.#.#.#.#.#.",
"[ #.#.#.#.#.#.#.#.#.#.| [ [ [ #.#.#.#.#.#.#.#.@.[ [ { y.4.w t 5 = # # w 0.v.i.d E #.#.#.#.#.#.#.",
"=.#.#.#.#.#.#.#.#.#.#.:.=.;.=.#.#.#.#.#.#.#.#.#.;.[ [ =.5.0.9.6.X.` r.0.v P V ^ #.#.#.#.#.#.#.#.",
"#.#.#.#.#.#.#.#.#.#.#.&.#.#.#.#.#.#.#.#.#.#.#.#.&.] *.#.>.g.f.f.g.j.k.P E =.=.#.#.#.#.#.#.#.#.#.",
"@.#.#.#.#.#.#.#.#.#.#.@.@.@.#.#.#.#.#.#.#.#.#.#.#.#.#.#.#.#.#.#.#.&.^ R #.#.#.#.#.#.#.#.#.#.#.#.",
"@.#.#.#.#.#.@.@.@.#.#.@.@.@.#.#.#.#.#.#.@.@.#.#.@.@.@.#.#.#.#.#.#.#.#.#.#.+.@.#.#.#.#.#.#.#.#.#.",
"#.#.#.#.#.#.@.@.@.#.#.#.#.#.#.#.#.#.#.#.@.@.#.#.#.#.#.#.#.#.#.#.@.@.@.#.#.#.#.#.#.#.#.#.@.@.@.#.",
"#.#.#.#.#.#.#.#.#.#.#.#.#.#.#.#.#.#.#.#.#.#.#.#.#.#.#.#.#.#.#.#.#.#.#.#.#.#.#.#.#.#.#.#.#.#.#.#.",
"#.#.#.#.#.#.=.=.=.#.#.#.#.#.#.#.#.#.#.&.=.=.#.#.#.#.#.#.#.#.#.#.*.&.*.#.#.#.#.#.#.#.#.#.&.&.&.#.",
"#.#.#.#.#.#.} [ [ #.#.#.#.#.#.#.#.#.@.=.[ [ =.#.#.#.#.#.#.#.#.#.[ [ [ #.#.#.#.#.#.#.#.#.[ [ [ #.",
"#.#.#.#.#.#.| { { #.#.#.#.#.#.#.#.#.@.[ { | =.#.#.#.#.#.#.#.#.#.| { | #.#.#.#.#.#.#.#.#.| [ [ #.",
"#.#.@.#.#.#.[ [ [ #.#.#.#.#.#.#.#.#.@.:.[ [ *.#.#.#.#.#.#.#.#.#.| [ { #.#.#.#.#.#.#.#.#.| [ [ #.",
"#.#.@.#.#.#.=.=.=.#.#.#.#.#.#.@.#.#.#.=.=.=.&.#.#.#.#.#.@.#.#.#.:.;.:.#.#.#.#.#.#.@.#.#.[ ;.:.#.",
"#.#.#.#.#.#.#.#.#.#.#.E 6 8 6 z #.#.#.#.#.#.#.#.#.#.#.#.#.#.#.#.&.#.&.#.#.#.#.#.#.@.#.#.*.&.*.#.",
"#.#.=.#.#.#.@.@.~ M S i r r r r n #.#.#.@.@.#.#.#.#.#.#.#.#.#.#.@.@.@.#.#.#.#.#.#.#.#.#.#.#.#.#.",
"#.#.[ &.#.#.^ #.n = # a 3.X.3.L : n #.#.#.@.#.#.#.#.#.#.[ &.#.#.@.@.@.#.#.#.#.#.#.=.#.#.@.@.@.#.",
"#.#.| &.#.~ 6 , p U J Y o.o.3.X.U t x #.#.#.#.#.#.#.#.#.| =.#.#.#.#.#.#.#.#.#.#.*.{ #.#.#.#.#.#.",
"#.#.| &.^ i t < a X.X.X.o.X.3.o._ 5 , #.#.#.#.#.#.#.#.#.| =.#.#.#.#.#.#.#.#.#.#.*.| #.#.#.#.#.#.",
"#.#.[ ^ 8 t o._ h g f J ..` X.J w = 8 ~ #.#.@.@.#.#.#.#.[ *.#.#.#.#.#.@.@.#.#.#.*.[ #.#.#.#.#.#.",
"#.#.E - t X.o.X.L f f k F H g w 3 y r < ~ #.@.@.#.#.#.#.=.#.#.#.#.#.#.@.@.#.#.#.#.=.#.#.#.#.#.#.",
"#.#.m X l e.X.o.` L U l a f w < t l k w 6 ! #.#.#.#.#.#.#.#.#.#.#.#.#.#.#.#.#.#.#.#.#.#.#.#.#.#.",
"#.#.N O t o.X.X.X.o.1.U l H u r l l l l w 7 Q ] &.#.#.#.@.#.#.#.#.#.#.*.*.#.#.#.#.@.#.#.#.#.#.#.",
"#.#.N + & F o.o.X.X.X.` ` X.H f l k k k F 3 % W =.#.#.#.#.#.@.@.#.#.#.[ [ #.#.#.#.#.@.@.#.#.#.&.",
"#.#.A + # r h ` 7.1.X.X.o.o.X.F 7 u J l k 3 X T ;.#.#.#.#.#.#.#.#.#.#.| | #.#.#.#.#.#.#.#.#.#.*.",
"#.#.N O : w 1 h U U ..o.X.o.8.U ; 1 f y w # X > ;.#.#.#.#.#.*.&.#.#.#.| [ #.#.#.#.#.&.&.#.#.#.*.",
"#.#.q o : r w w 7 r U 3.X.X.3.U e & ; w r # + <.s.#.#.#.#.#.[ [ *.#.#.:.;.#.#.#.#.#.[ [ #.#.#.*.",
"#.d J . o < ; 1 3 7 a g a a g a e o 5 h.l.p.o.2 &.#.#.#.#.@.[ { =.#.#.&.#.#.#.#.#.#.{ { &.#.#.#.",
"#.C d.D G X.' y = < ; = = = = = : k U K $.a.%.~ #.#.#.#.#.#.[ { =.#.#.@.@.#.#.#.#.#.| | *.#.#.#.",
"#.#.O.t.x.h.u.F 7 t t t t t t r r i.I / #.#.#.#.#.#.#.#.#.#.:.;.&.#.#.@.@.#.#.#.#.#.[ [ #.#.#.#.",
"#.#.#.O.O.! b _ v.z.z.z.z.z.z.c.c.j ^ #.#.#.#.#.#.#.#.#.#.#.&.&.#.#.#.#.#.#.#.#.#.#.*.*.#.#.#.#.",
"#.#.#.#.@.@.#.z Z c c c c c c B B R @.#.#.#.#.#.#.#.#.#.#.#.@.@.#.#.#.#.#.#.#.#.#.#.#.#.#.#.#.#.",
"#.#.#.#.#.@.#.#.#.#.#.#.#.#.#.#.#.#.@.#.#.#.#.#.#.#.#.#.#.#.@.@.#.#.#.#.#.#.#.#.#.#.@.@.#.#.#.#."
};
